<svg width="35" height="33" viewBox="0 0 35 33" fill="none" xmlns="http://www.w3.org/2000/svg">
<path d="M25.0448 21.3407L24.3656 22.1598H25.4297H26.5439C26.8598 22.1598 27.1524 22.2762 27.363 22.4748L34.1765 28.9C34.1768 28.9003 34.1771 28.9006 34.1773 28.9008C34.6051 29.3094 34.605 29.9574 34.1716 30.3661L32.237 32.1904L32.2351 32.1923C31.7935 32.6131 31.0567 32.6157 30.6057 32.1904L23.7903 25.7634C23.5808 25.5658 23.4688 25.3033 23.4688 25.0313V23.9805V22.9906L22.672 23.5781C20.3441 25.2945 17.4127 26.3169 14.2188 26.3169C6.61235 26.3169 0.5 20.512 0.5 13.4085C0.5 6.30495 6.61235 0.5 14.2188 0.5C21.8251 0.5 27.9375 6.30495 27.9375 13.4085C27.9375 16.3988 26.8615 19.1495 25.0448 21.3407ZM4.96875 13.4085C4.96875 18.2761 9.13791 22.1598 14.2188 22.1598C19.307 22.1598 23.4688 18.2692 23.4688 13.4085C23.4688 8.5408 19.2996 4.6571 14.2188 4.6571C9.13055 4.6571 4.96875 8.54774 4.96875 13.4085Z" fill="black" stroke="black"/>
</svg>
